<svg width="257" height="15" viewBox="0 0 257 15" fill="none" xmlns="http://www.w3.org/2000/svg">
<path d="M4.144 14.4C4.02667 14.4 3.93067 14.3627 3.856 14.288C3.78133 14.2133 3.744 14.1173 3.744 14V12.896C2.92267 12.7893 2.23467 12.5813 1.68 12.272C1.136 11.9627 0.725332 11.5893 0.447999 11.152C0.170666 10.704 0.0213323 10.2347 -1.01328e-06 9.74399C-1.01328e-06 9.65865 0.031999 9.58399 0.095999 9.51999C0.170666 9.44532 0.255999 9.40799 0.351999 9.40799H2.368C2.51733 9.40799 2.62933 9.43465 2.704 9.48799C2.77867 9.54132 2.85333 9.61065 2.928 9.69599C3.01333 9.85599 3.13067 10.0107 3.28 10.16C3.44 10.3093 3.64267 10.432 3.888 10.528C4.144 10.6133 4.45867 10.656 4.832 10.656C5.45067 10.656 5.91467 10.56 6.224 10.368C6.544 10.176 6.704 9.91465 6.704 9.58399C6.704 9.34932 6.61867 9.15732 6.448 9.00799C6.27733 8.84799 6 8.70932 5.616 8.59199C5.24267 8.46399 4.74133 8.33599 4.112 8.20799C3.30133 8.03732 2.608 7.81865 2.032 7.55199C1.46667 7.27465 1.03467 6.91732 0.735999 6.47999C0.437332 6.03199 0.287999 5.47732 0.287999 4.81599C0.287999 3.96265 0.591999 3.23732 1.2 2.63999C1.81867 2.04265 2.66667 1.66932 3.744 1.51999V0.399987C3.744 0.282654 3.78133 0.186654 3.856 0.111987C3.93067 0.0373208 4.02667 -1.23978e-05 4.144 -1.23978e-05H5.472C5.57867 -1.23978e-05 5.66933 0.0373208 5.744 0.111987C5.82933 0.186654 5.872 0.282654 5.872 0.399987V1.55199C6.608 1.67999 7.22667 1.90932 7.728 2.23999C8.22933 2.57065 8.608 2.94399 8.864 3.35999C9.13067 3.77599 9.26933 4.17599 9.28 4.55999C9.28 4.64532 9.248 4.72532 9.184 4.79999C9.12 4.86399 9.04 4.89599 8.944 4.89599H6.832C6.71467 4.89599 6.61333 4.87465 6.528 4.83199C6.44267 4.78932 6.368 4.71999 6.304 4.62399C6.24 4.38932 6.06933 4.18665 5.792 4.01599C5.51467 3.83465 5.15733 3.74399 4.72 3.74399C4.26133 3.74399 3.89867 3.82932 3.632 3.99999C3.36533 4.15999 3.232 4.41065 3.232 4.75199C3.232 4.96532 3.30133 5.15199 3.44 5.31199C3.58933 5.47199 3.83467 5.61065 4.176 5.72799C4.51733 5.84532 4.98133 5.96799 5.568 6.09599C6.53867 6.27732 7.32267 6.50665 7.92 6.78399C8.51733 7.05065 8.95467 7.40265 9.232 7.83999C9.50933 8.26665 9.648 8.80532 9.648 9.45599C9.648 10.0853 9.488 10.64 9.168 11.12C8.85867 11.6 8.42133 11.9893 7.856 12.288C7.29067 12.5867 6.62933 12.784 5.872 12.88V14C5.872 14.1173 5.82933 14.2133 5.744 14.288C5.66933 14.3627 5.57867 14.4 5.472 14.4H4.144ZM93.2919 12.8C93.1852 12.8 93.0945 12.7627 93.0199 12.688C92.9452 12.6133 92.9079 12.5227 92.9079 12.416V1.99999C92.9079 1.88265 92.9452 1.78665 93.0199 1.71199C93.0945 1.63732 93.1852 1.59999 93.2919 1.59999H97.5799C98.4119 1.59999 99.1372 1.73332 99.7559 1.99999C100.375 2.25599 100.855 2.65065 101.196 3.18399C101.537 3.70665 101.708 4.36265 101.708 5.15199C101.708 5.95199 101.537 6.61332 101.196 7.13599C100.855 7.64799 100.375 8.03199 99.7559 8.28799C99.1372 8.54399 98.4119 8.67199 97.5799 8.67199H95.1959V12.416C95.1959 12.5227 95.1585 12.6133 95.0839 12.688C95.0199 12.7627 94.9292 12.8 94.8119 12.8H93.2919ZM95.1639 6.89599H97.4999C98.1185 6.89599 98.5932 6.75199 98.9239 6.46399C99.2545 6.16532 99.4199 5.72799 99.4199 5.15199C99.4199 4.61865 99.2652 4.19199 98.9559 3.87199C98.6465 3.54132 98.1612 3.37599 97.4999 3.37599H95.1639V6.89599ZM176.901 12.8C176.795 12.8 176.704 12.7627 176.629 12.688C176.555 12.6133 176.517 12.5227 176.517 12.416V1.99999C176.517 1.88265 176.555 1.78665 176.629 1.71199C176.704 1.63732 176.795 1.59999 176.901 1.59999H183.941C184.059 1.59999 184.155 1.63732 184.229 1.71199C184.304 1.78665 184.341 1.88265 184.341 1.99999V3.05599C184.341 3.16265 184.304 3.25332 184.229 3.32799C184.155 3.40265 184.059 3.43999 183.941 3.43999H178.677V6.27199H183.589C183.707 6.27199 183.803 6.30932 183.877 6.38399C183.952 6.44799 183.989 6.53865 183.989 6.65599V7.64799C183.989 7.76532 183.952 7.86132 183.877 7.93599C183.803 7.99999 183.707 8.03199 183.589 8.03199H178.677V10.96H184.069C184.187 10.96 184.283 10.9973 184.357 11.072C184.432 11.1467 184.469 11.2427 184.469 11.36V12.416C184.469 12.5227 184.432 12.6133 184.357 12.688C184.283 12.7627 184.187 12.8 184.069 12.8H176.901Z" fill="#285193"/>
<path d="M18.5134 12.8C18.4067 12.8 18.316 12.768 18.2414 12.704C18.1774 12.6293 18.1454 12.5387 18.1454 12.432V3.47199L15.4894 5.51999C15.404 5.58399 15.3134 5.61065 15.2174 5.59999C15.1214 5.58932 15.0414 5.54132 14.9774 5.45599L14.5614 4.92799C14.4974 4.83199 14.4707 4.73599 14.4814 4.63999C14.5027 4.54399 14.556 4.46399 14.6414 4.39999L18.1294 1.71199C18.204 1.65865 18.2734 1.62665 18.3374 1.61599C18.4014 1.60532 18.4707 1.59999 18.5454 1.59999H19.3614C19.468 1.59999 19.5534 1.63732 19.6174 1.71199C19.6814 1.77599 19.7134 1.86132 19.7134 1.96799V12.432C19.7134 12.5387 19.6814 12.6293 19.6174 12.704C19.5534 12.768 19.468 12.8 19.3614 12.8H18.5134ZM26.0131 12.96C25.2771 12.96 24.6531 12.848 24.1411 12.624C23.6398 12.3893 23.2291 12.0693 22.9091 11.664C22.5891 11.2587 22.3545 10.7947 22.2051 10.272C22.0665 9.74932 21.9865 9.19465 21.9651 8.60799C21.9545 8.31999 21.9438 8.01599 21.9331 7.69599C21.9331 7.37599 21.9331 7.05599 21.9331 6.73599C21.9438 6.40532 21.9545 6.09065 21.9651 5.79199C21.9758 5.20532 22.0558 4.65065 22.2051 4.12799C22.3651 3.59465 22.5998 3.13065 22.9091 2.73599C23.2291 2.33065 23.6451 2.01599 24.1571 1.79199C24.6691 1.55732 25.2878 1.43999 26.0131 1.43999C26.7491 1.43999 27.3678 1.55732 27.8691 1.79199C28.3811 2.01599 28.7971 2.33065 29.1171 2.73599C29.4371 3.13065 29.6718 3.59465 29.8211 4.12799C29.9811 4.65065 30.0665 5.20532 30.0771 5.79199C30.0878 6.09065 30.0931 6.40532 30.0931 6.73599C30.1038 7.05599 30.1038 7.37599 30.0931 7.69599C30.0931 8.01599 30.0878 8.31999 30.0771 8.60799C30.0665 9.19465 29.9811 9.74932 29.8211 10.272C29.6718 10.7947 29.4371 11.2587 29.1171 11.664C28.8078 12.0693 28.3971 12.3893 27.8851 12.624C27.3838 12.848 26.7598 12.96 26.0131 12.96ZM26.0131 11.6C26.8451 11.6 27.4585 11.328 27.8531 10.784C28.2585 10.2293 28.4665 9.47732 28.4771 8.52799C28.4985 8.21865 28.5091 7.91999 28.5091 7.63199C28.5091 7.33332 28.5091 7.03999 28.5091 6.75199C28.5091 6.45332 28.4985 6.15999 28.4771 5.87199C28.4665 4.94399 28.2585 4.20265 27.8531 3.64799C27.4585 3.08265 26.8451 2.79999 26.0131 2.79999C25.1918 2.79999 24.5785 3.08265 24.1731 3.64799C23.7785 4.20265 23.5705 4.94399 23.5491 5.87199C23.5491 6.15999 23.5438 6.45332 23.5331 6.75199C23.5331 7.03999 23.5331 7.33332 23.5331 7.63199C23.5438 7.91999 23.5491 8.21865 23.5491 8.52799C23.5705 9.47732 23.7838 10.2293 24.1891 10.784C24.5945 11.328 25.2025 11.6 26.0131 11.6ZM35.5134 12.8C35.4067 12.8 35.316 12.768 35.2414 12.704C35.1774 12.6293 35.1454 12.5387 35.1454 12.432V3.47199L32.4894 5.51999C32.404 5.58399 32.3134 5.61065 32.2174 5.59999C32.1214 5.58932 32.0414 5.54132 31.9774 5.45599L31.5614 4.92799C31.4974 4.83199 31.4707 4.73599 31.4814 4.63999C31.5027 4.54399 31.556 4.46399 31.6414 4.39999L35.1294 1.71199C35.204 1.65865 35.2734 1.62665 35.3374 1.61599C35.4014 1.60532 35.4707 1.59999 35.5454 1.59999H36.3614C36.468 1.59999 36.5534 1.63732 36.6174 1.71199C36.6814 1.77599 36.7134 1.86132 36.7134 1.96799V12.432C36.7134 12.5387 36.6814 12.6293 36.6174 12.704C36.5534 12.768 36.468 12.8 36.3614 12.8H35.5134ZM42.7091 12.96C42.0371 12.96 41.4505 12.88 40.9491 12.72C40.4478 12.5493 40.0265 12.3253 39.6851 12.048C39.3438 11.7707 39.0825 11.4667 38.9011 11.136C38.7305 10.8053 38.6398 10.464 38.6291 10.112C38.6291 10.016 38.6611 9.94132 38.7251 9.88799C38.7891 9.83465 38.8691 9.80799 38.9651 9.80799H39.7491C39.8451 9.80799 39.9305 9.82932 40.0051 9.87199C40.0798 9.91465 40.1438 10.0053 40.1971 10.144C40.3038 10.528 40.4851 10.8267 40.7411 11.04C41.0078 11.2533 41.3118 11.4027 41.6531 11.488C42.0051 11.5627 42.3571 11.6 42.7091 11.6C43.4451 11.6 44.0425 11.424 44.5011 11.072C44.9598 10.72 45.1891 10.2027 45.1891 9.51999C45.1891 8.82665 44.9811 8.33065 44.5651 8.03199C44.1491 7.73332 43.5731 7.58399 42.8371 7.58399H41.3171C41.2105 7.58399 41.1198 7.55199 41.0451 7.48799C40.9811 7.42399 40.9491 7.33332 40.9491 7.21599V6.78399C40.9491 6.68799 40.9651 6.60799 40.9971 6.54399C41.0398 6.46932 41.0825 6.40532 41.1251 6.35199L44.2291 2.95999H39.5091C39.4025 2.95999 39.3118 2.92799 39.2371 2.86399C39.1731 2.79999 39.1411 2.70932 39.1411 2.59199V1.98399C39.1411 1.86665 39.1731 1.77599 39.2371 1.71199C39.3118 1.63732 39.4025 1.59999 39.5091 1.59999H45.8931C46.0105 1.59999 46.1011 1.63732 46.1651 1.71199C46.2398 1.77599 46.2771 1.86665 46.2771 1.98399V2.55999C46.2771 2.63465 46.2558 2.70399 46.2131 2.76799C46.1811 2.82132 46.1438 2.87465 46.1011 2.92799L43.0131 6.36799L43.2691 6.38399C43.9731 6.40532 44.5865 6.53332 45.1091 6.76799C45.6425 7.00265 46.0531 7.35465 46.3411 7.82399C46.6398 8.28265 46.7891 8.86399 46.7891 9.56799C46.7891 10.2827 46.6131 10.896 46.2611 11.408C45.9091 11.9093 45.4238 12.2933 44.8051 12.56C44.1865 12.8267 43.4878 12.96 42.7091 12.96ZM49.9345 12.8C49.8385 12.8 49.7585 12.768 49.6945 12.704C49.6412 12.6293 49.6145 12.544 49.6145 12.448C49.6145 12.416 49.6252 12.368 49.6465 12.304L53.6305 2.99199H48.3825C48.2758 2.99199 48.1852 2.95999 48.1105 2.89599C48.0465 2.82132 48.0145 2.73065 48.0145 2.62399V1.98399C48.0145 1.86665 48.0465 1.77599 48.1105 1.71199C48.1852 1.63732 48.2758 1.59999 48.3825 1.59999H54.9425C55.0598 1.59999 55.1505 1.63732 55.2145 1.71199C55.2892 1.77599 55.3265 1.86665 55.3265 1.98399V2.57599C55.3265 2.71465 55.3158 2.82665 55.2945 2.91199C55.2732 2.99732 55.2412 3.09332 55.1985 3.19999L51.2465 12.4C51.2145 12.4853 51.1612 12.576 51.0865 12.672C51.0225 12.7573 50.9265 12.8 50.7985 12.8H49.9345ZM56.1467 12.8C56.0401 12.8 55.9494 12.768 55.8747 12.704C55.8107 12.6293 55.7787 12.5387 55.7787 12.432V11.28C55.7787 11.1733 55.8107 11.088 55.8747 11.024C55.9494 10.9493 56.0401 10.912 56.1467 10.912H57.2987C57.4054 10.912 57.4907 10.9493 57.5547 11.024C57.6294 11.088 57.6667 11.1733 57.6667 11.28V12.432C57.6667 12.5387 57.6294 12.6293 57.5547 12.704C57.4907 12.768 57.4054 12.8 57.2987 12.8H56.1467ZM59.89 12.8C59.7833 12.8 59.6927 12.768 59.618 12.704C59.554 12.6293 59.522 12.5387 59.522 12.432V11.92C59.522 11.824 59.5487 11.7173 59.602 11.6C59.6553 11.4827 59.762 11.3547 59.922 11.216L63.314 7.82399C63.858 7.36532 64.2847 6.97599 64.594 6.65599C64.914 6.32532 65.138 6.01065 65.266 5.71199C65.4047 5.41332 65.474 5.10399 65.474 4.78399C65.474 4.17599 65.3033 3.69599 64.962 3.34399C64.6207 2.98132 64.114 2.79999 63.442 2.79999C63.0153 2.79999 62.6473 2.89065 62.338 3.07199C62.0287 3.24265 61.7833 3.48265 61.602 3.79199C61.4313 4.09065 61.3193 4.43199 61.266 4.81599C61.2447 4.95465 61.186 5.05065 61.09 5.10399C61.0047 5.15732 60.9247 5.18399 60.85 5.18399H60.018C59.922 5.18399 59.842 5.15732 59.778 5.10399C59.714 5.03999 59.682 4.96532 59.682 4.87999C59.6927 4.47465 59.778 4.06932 59.938 3.66399C60.098 3.24799 60.3327 2.87465 60.642 2.54399C60.962 2.21332 61.3513 1.94665 61.81 1.74399C62.2793 1.53065 62.8233 1.42399 63.442 1.42399C64.2847 1.42399 64.9727 1.57865 65.506 1.88799C66.05 2.18665 66.45 2.58665 66.706 3.08799C66.962 3.58932 67.09 4.13865 67.09 4.73599C67.09 5.20532 67.01 5.63732 66.85 6.03199C66.69 6.41599 66.4553 6.79465 66.146 7.16799C65.8473 7.53065 65.474 7.90399 65.026 8.28799L61.954 11.408H66.946C67.0633 11.408 67.154 11.44 67.218 11.504C67.2927 11.568 67.33 11.6587 67.33 11.776V12.432C67.33 12.5387 67.2927 12.6293 67.218 12.704C67.154 12.768 67.0633 12.8 66.946 12.8H59.89ZM110.545 12.8C110.438 12.8 110.347 12.768 110.273 12.704C110.209 12.6293 110.177 12.5387 110.177 12.432V3.47199L107.521 5.51999C107.435 5.58399 107.345 5.61065 107.249 5.59999C107.153 5.58932 107.073 5.54132 107.009 5.45599L106.593 4.92799C106.529 4.83199 106.502 4.73599 106.513 4.63999C106.534 4.54399 106.587 4.46399 106.673 4.39999L110.161 1.71199C110.235 1.65865 110.305 1.62665 110.369 1.61599C110.433 1.60532 110.502 1.59999 110.577 1.59999H111.393C111.499 1.59999 111.585 1.63732 111.649 1.71199C111.713 1.77599 111.745 1.86132 111.745 1.96799V12.432C111.745 12.5387 111.713 12.6293 111.649 12.704C111.585 12.768 111.499 12.8 111.393 12.8H110.545ZM117.74 12.96C117.068 12.96 116.482 12.88 115.98 12.72C115.479 12.5493 115.058 12.3253 114.716 12.048C114.375 11.7707 114.114 11.4667 113.932 11.136C113.762 10.8053 113.671 10.464 113.66 10.112C113.66 10.016 113.692 9.94132 113.756 9.88799C113.82 9.83465 113.9 9.80799 113.996 9.80799H114.78C114.876 9.80799 114.962 9.82932 115.036 9.87199C115.111 9.91465 115.175 10.0053 115.228 10.144C115.335 10.528 115.516 10.8267 115.772 11.04C116.039 11.2533 116.343 11.4027 116.684 11.488C117.036 11.5627 117.388 11.6 117.74 11.6C118.476 11.6 119.074 11.424 119.532 11.072C119.991 10.72 120.22 10.2027 120.22 9.51999C120.22 8.82665 120.012 8.33065 119.596 8.03199C119.18 7.73332 118.604 7.58399 117.868 7.58399H116.348C116.242 7.58399 116.151 7.55199 116.076 7.48799C116.012 7.42399 115.98 7.33332 115.98 7.21599V6.78399C115.98 6.68799 115.996 6.60799 116.028 6.54399C116.071 6.46932 116.114 6.40532 116.156 6.35199L119.26 2.95999H114.54C114.434 2.95999 114.343 2.92799 114.268 2.86399C114.204 2.79999 114.172 2.70932 114.172 2.59199V1.98399C114.172 1.86665 114.204 1.77599 114.268 1.71199C114.343 1.63732 114.434 1.59999 114.54 1.59999H120.924C121.042 1.59999 121.132 1.63732 121.196 1.71199C121.271 1.77599 121.308 1.86665 121.308 1.98399V2.55999C121.308 2.63465 121.287 2.70399 121.244 2.76799C121.212 2.82132 121.175 2.87465 121.132 2.92799L118.044 6.36799L118.3 6.38399C119.004 6.40532 119.618 6.53332 120.14 6.76799C120.674 7.00265 121.084 7.35465 121.372 7.82399C121.671 8.28265 121.82 8.86399 121.82 9.56799C121.82 10.2827 121.644 10.896 121.292 11.408C120.94 11.9093 120.455 12.2933 119.836 12.56C119.218 12.8267 118.519 12.96 117.74 12.96ZM127.67 12.96C127.051 12.96 126.48 12.8853 125.958 12.736C125.446 12.576 125.003 12.352 124.63 12.064C124.267 11.7653 123.984 11.408 123.782 10.992C123.579 10.576 123.478 10.1067 123.478 9.58399C123.478 8.93332 123.632 8.37332 123.942 7.90399C124.262 7.43465 124.683 7.07732 125.206 6.83199C124.79 6.58665 124.464 6.26665 124.23 5.87199C123.995 5.47732 123.878 5.00799 123.878 4.46399C123.878 3.82399 124.032 3.28532 124.342 2.84799C124.662 2.39999 125.104 2.05332 125.67 1.80799C126.246 1.56265 126.912 1.43999 127.67 1.43999C128.416 1.43999 129.072 1.56265 129.638 1.80799C130.214 2.04265 130.656 2.38399 130.966 2.83199C131.286 3.27999 131.446 3.81865 131.446 4.44799C131.446 4.99199 131.328 5.46665 131.094 5.87199C130.859 6.26665 130.539 6.58665 130.134 6.83199C130.656 7.07732 131.072 7.43465 131.382 7.90399C131.702 8.37332 131.862 8.93332 131.862 9.58399C131.862 10.2773 131.686 10.88 131.334 11.392C130.982 11.8933 130.491 12.2827 129.862 12.56C129.232 12.8267 128.502 12.96 127.67 12.96ZM127.67 11.68C128.16 11.68 128.603 11.5947 128.998 11.424C129.392 11.2533 129.707 11.0133 129.942 10.704C130.176 10.384 130.294 10.0107 130.294 9.58399C130.294 9.14665 130.176 8.77865 129.942 8.47999C129.707 8.17065 129.392 7.93599 128.998 7.77599C128.603 7.60532 128.16 7.51999 127.67 7.51999C127.179 7.51999 126.731 7.60532 126.326 7.77599C125.931 7.93599 125.616 8.17065 125.382 8.47999C125.147 8.77865 125.03 9.14665 125.03 9.58399C125.03 10.0107 125.147 10.384 125.382 10.704C125.616 11.0133 125.931 11.2533 126.326 11.424C126.731 11.5947 127.179 11.68 127.67 11.68ZM127.67 6.25599C128.075 6.25599 128.448 6.18132 128.79 6.03199C129.142 5.88265 129.419 5.67999 129.622 5.42399C129.835 5.16799 129.942 4.85865 129.942 4.49599C129.942 4.13332 129.84 3.81865 129.638 3.55199C129.446 3.28532 129.174 3.08265 128.822 2.94399C128.48 2.79465 128.096 2.71999 127.67 2.71999C127.243 2.71999 126.854 2.79465 126.502 2.94399C126.16 3.08265 125.888 3.28532 125.686 3.55199C125.483 3.81865 125.382 4.13332 125.382 4.49599C125.382 4.86932 125.483 5.18932 125.686 5.45599C125.888 5.71199 126.16 5.90932 126.502 6.04799C126.854 6.18665 127.243 6.25599 127.67 6.25599ZM134.037 12.8C133.931 12.8 133.84 12.768 133.765 12.704C133.701 12.6293 133.669 12.5387 133.669 12.432V11.28C133.669 11.1733 133.701 11.088 133.765 11.024C133.84 10.9493 133.931 10.912 134.037 10.912H135.189C135.296 10.912 135.381 10.9493 135.445 11.024C135.52 11.088 135.557 11.1733 135.557 11.28V12.432C135.557 12.5387 135.52 12.6293 135.445 12.704C135.381 12.768 135.296 12.8 135.189 12.8H134.037ZM137.781 12.8C137.674 12.8 137.583 12.768 137.509 12.704C137.445 12.6293 137.413 12.5387 137.413 12.432V11.92C137.413 11.824 137.439 11.7173 137.493 11.6C137.546 11.4827 137.653 11.3547 137.813 11.216L141.205 7.82399C141.749 7.36532 142.175 6.97599 142.485 6.65599C142.805 6.32532 143.029 6.01065 143.157 5.71199C143.295 5.41332 143.365 5.10399 143.365 4.78399C143.365 4.17599 143.194 3.69599 142.853 3.34399C142.511 2.98132 142.005 2.79999 141.333 2.79999C140.906 2.79999 140.538 2.89065 140.229 3.07199C139.919 3.24265 139.674 3.48265 139.493 3.79199C139.322 4.09065 139.21 4.43199 139.157 4.81599C139.135 4.95465 139.077 5.05065 138.981 5.10399C138.895 5.15732 138.815 5.18399 138.741 5.18399H137.909C137.813 5.18399 137.733 5.15732 137.669 5.10399C137.605 5.03999 137.573 4.96532 137.573 4.87999C137.583 4.47465 137.669 4.06932 137.829 3.66399C137.989 3.24799 138.223 2.87465 138.533 2.54399C138.853 2.21332 139.242 1.94665 139.701 1.74399C140.17 1.53065 140.714 1.42399 141.333 1.42399C142.175 1.42399 142.863 1.57865 143.397 1.88799C143.941 2.18665 144.341 2.58665 144.597 3.08799C144.853 3.58932 144.981 4.13865 144.981 4.73599C144.981 5.20532 144.901 5.63732 144.741 6.03199C144.581 6.41599 144.346 6.79465 144.037 7.16799C143.738 7.53065 143.365 7.90399 142.917 8.28799L139.845 11.408H144.837C144.954 11.408 145.045 11.44 145.109 11.504C145.183 11.568 145.221 11.6587 145.221 11.776V12.432C145.221 12.5387 145.183 12.6293 145.109 12.704C145.045 12.768 144.954 12.8 144.837 12.8H137.781ZM150.947 12.96C150.062 12.96 149.31 12.784 148.691 12.432C148.073 12.0693 147.598 11.6 147.267 11.024C146.947 10.4373 146.787 9.80265 146.787 9.11999C146.787 8.79999 146.825 8.49599 146.899 8.20799C146.985 7.90932 147.086 7.63199 147.203 7.37599C147.331 7.10932 147.454 6.87465 147.571 6.67199C147.699 6.45865 147.811 6.28799 147.907 6.15999L150.947 1.91999C151.001 1.86665 151.065 1.80265 151.139 1.72799C151.214 1.64265 151.326 1.59999 151.475 1.59999H152.323C152.419 1.59999 152.494 1.63732 152.547 1.71199C152.611 1.77599 152.643 1.85599 152.643 1.95199C152.643 1.99465 152.638 2.03732 152.627 2.07999C152.617 2.11199 152.601 2.13865 152.579 2.15999L150.243 5.42399C150.371 5.38132 150.515 5.35465 150.675 5.34399C150.846 5.32265 151.006 5.31199 151.155 5.31199C151.742 5.32265 152.275 5.42932 152.755 5.63199C153.235 5.83465 153.646 6.11199 153.987 6.46399C154.339 6.80532 154.606 7.20532 154.787 7.66399C154.969 8.11199 155.059 8.59199 155.059 9.10399C155.059 9.77599 154.899 10.4053 154.579 10.992C154.259 11.5787 153.79 12.0533 153.171 12.416C152.563 12.7787 151.822 12.96 150.947 12.96ZM150.931 11.6C151.379 11.6 151.795 11.504 152.179 11.312C152.563 11.12 152.873 10.8427 153.107 10.48C153.353 10.1067 153.475 9.65332 153.475 9.11999C153.475 8.57599 153.358 8.12265 153.123 7.75999C152.889 7.38665 152.574 7.10932 152.179 6.92799C151.795 6.73599 151.379 6.63999 150.931 6.63999C150.483 6.63999 150.067 6.73599 149.683 6.92799C149.299 7.10932 148.985 7.38665 148.739 7.75999C148.505 8.12265 148.387 8.57599 148.387 9.11999C148.387 9.65332 148.505 10.1067 148.739 10.48C148.985 10.8427 149.299 11.12 149.683 11.312C150.067 11.504 150.483 11.6 150.931 11.6ZM193.56 12.8C193.454 12.8 193.363 12.768 193.288 12.704C193.224 12.6293 193.192 12.5387 193.192 12.432V3.47199L190.536 5.51999C190.451 5.58399 190.36 5.61065 190.264 5.59999C190.168 5.58932 190.088 5.54132 190.024 5.45599L189.608 4.92799C189.544 4.83199 189.518 4.73599 189.528 4.63999C189.55 4.54399 189.603 4.46399 189.688 4.39999L193.176 1.71199C193.251 1.65865 193.32 1.62665 193.384 1.61599C193.448 1.60532 193.518 1.59999 193.592 1.59999H194.408C194.515 1.59999 194.6 1.63732 194.664 1.71199C194.728 1.77599 194.76 1.86132 194.76 1.96799V12.432C194.76 12.5387 194.728 12.6293 194.664 12.704C194.6 12.768 194.515 12.8 194.408 12.8H193.56ZM201.06 12.96C200.324 12.96 199.7 12.848 199.188 12.624C198.687 12.3893 198.276 12.0693 197.956 11.664C197.636 11.2587 197.401 10.7947 197.252 10.272C197.113 9.74932 197.033 9.19465 197.012 8.60799C197.001 8.31999 196.991 8.01599 196.98 7.69599C196.98 7.37599 196.98 7.05599 196.98 6.73599C196.991 6.40532 197.001 6.09065 197.012 5.79199C197.023 5.20532 197.103 4.65065 197.252 4.12799C197.412 3.59465 197.647 3.13065 197.956 2.73599C198.276 2.33065 198.692 2.01599 199.204 1.79199C199.716 1.55732 200.335 1.43999 201.06 1.43999C201.796 1.43999 202.415 1.55732 202.916 1.79199C203.428 2.01599 203.844 2.33065 204.164 2.73599C204.484 3.13065 204.719 3.59465 204.868 4.12799C205.028 4.65065 205.113 5.20532 205.124 5.79199C205.135 6.09065 205.14 6.40532 205.14 6.73599C205.151 7.05599 205.151 7.37599 205.14 7.69599C205.14 8.01599 205.135 8.31999 205.124 8.60799C205.113 9.19465 205.028 9.74932 204.868 10.272C204.719 10.7947 204.484 11.2587 204.164 11.664C203.855 12.0693 203.444 12.3893 202.932 12.624C202.431 12.848 201.807 12.96 201.06 12.96ZM201.06 11.6C201.892 11.6 202.505 11.328 202.9 10.784C203.305 10.2293 203.513 9.47732 203.524 8.52799C203.545 8.21865 203.556 7.91999 203.556 7.63199C203.556 7.33332 203.556 7.03999 203.556 6.75199C203.556 6.45332 203.545 6.15999 203.524 5.87199C203.513 4.94399 203.305 4.20265 202.9 3.64799C202.505 3.08265 201.892 2.79999 201.06 2.79999C200.239 2.79999 199.625 3.08265 199.22 3.64799C198.825 4.20265 198.617 4.94399 198.596 5.87199C198.596 6.15999 198.591 6.45332 198.58 6.75199C198.58 7.03999 198.58 7.33332 198.58 7.63199C198.591 7.91999 198.596 8.21865 198.596 8.52799C198.617 9.47732 198.831 10.2293 199.236 10.784C199.641 11.328 200.249 11.6 201.06 11.6ZM209.232 12.8C209.136 12.8 209.056 12.768 208.992 12.704C208.939 12.6293 208.912 12.544 208.912 12.448C208.912 12.3947 208.918 12.352 208.928 12.32C208.95 12.288 208.966 12.2613 208.976 12.24L211.424 8.83199C211.158 8.89599 210.87 8.92799 210.56 8.92799C209.963 8.91732 209.43 8.81065 208.96 8.60799C208.491 8.40532 208.091 8.13332 207.76 7.79199C207.43 7.43999 207.179 7.04532 207.008 6.60799C206.838 6.17065 206.752 5.71199 206.752 5.23199C206.752 4.76265 206.832 4.30399 206.992 3.85599C207.163 3.40799 207.414 3.00265 207.744 2.63999C208.086 2.27732 208.507 1.98932 209.008 1.77599C209.51 1.55199 210.102 1.43999 210.784 1.43999C211.456 1.43999 212.043 1.54665 212.544 1.75999C213.056 1.96265 213.483 2.24532 213.824 2.60799C214.176 2.95999 214.432 3.35999 214.592 3.80799C214.763 4.25599 214.848 4.71999 214.848 5.19999C214.848 5.63732 214.784 6.03732 214.656 6.39999C214.528 6.76265 214.374 7.08799 214.192 7.37599C214.022 7.66399 213.851 7.93065 213.68 8.17599L210.608 12.48C210.566 12.5333 210.507 12.6027 210.432 12.688C210.358 12.7627 210.246 12.8 210.096 12.8H209.232ZM210.784 7.63199C211.232 7.63199 211.643 7.53599 212.016 7.34399C212.4 7.14132 212.704 6.86399 212.928 6.51199C213.152 6.14932 213.264 5.71732 213.264 5.21599C213.264 4.71465 213.152 4.28799 212.928 3.93599C212.704 3.57332 212.4 3.29599 212.016 3.10399C211.643 2.90132 211.232 2.79999 210.784 2.79999C210.347 2.79999 209.942 2.90132 209.568 3.10399C209.195 3.29599 208.896 3.57332 208.672 3.93599C208.448 4.28799 208.336 4.71465 208.336 5.21599C208.336 5.71732 208.448 6.14932 208.672 6.51199C208.896 6.86399 209.195 7.14132 209.568 7.34399C209.942 7.53599 210.347 7.63199 210.784 7.63199ZM220.717 12.96C220.098 12.96 219.527 12.8853 219.005 12.736C218.493 12.576 218.05 12.352 217.677 12.064C217.314 11.7653 217.031 11.408 216.829 10.992C216.626 10.576 216.525 10.1067 216.525 9.58399C216.525 8.93332 216.679 8.37332 216.989 7.90399C217.309 7.43465 217.73 7.07732 218.253 6.83199C217.837 6.58665 217.511 6.26665 217.277 5.87199C217.042 5.47732 216.925 5.00799 216.925 4.46399C216.925 3.82399 217.079 3.28532 217.389 2.84799C217.709 2.39999 218.151 2.05332 218.717 1.80799C219.293 1.56265 219.959 1.43999 220.717 1.43999C221.463 1.43999 222.119 1.56265 222.685 1.80799C223.261 2.04265 223.703 2.38399 224.013 2.83199C224.333 3.27999 224.493 3.81865 224.493 4.44799C224.493 4.99199 224.375 5.46665 224.141 5.87199C223.906 6.26665 223.586 6.58665 223.181 6.83199C223.703 7.07732 224.119 7.43465 224.429 7.90399C224.749 8.37332 224.909 8.93332 224.909 9.58399C224.909 10.2773 224.733 10.88 224.381 11.392C224.029 11.8933 223.538 12.2827 222.909 12.56C222.279 12.8267 221.549 12.96 220.717 12.96ZM220.717 11.68C221.207 11.68 221.65 11.5947 222.045 11.424C222.439 11.2533 222.754 11.0133 222.989 10.704C223.223 10.384 223.341 10.0107 223.341 9.58399C223.341 9.14665 223.223 8.77865 222.989 8.47999C222.754 8.17065 222.439 7.93599 222.045 7.77599C221.65 7.60532 221.207 7.51999 220.717 7.51999C220.226 7.51999 219.778 7.60532 219.373 7.77599C218.978 7.93599 218.663 8.17065 218.429 8.47999C218.194 8.77865 218.077 9.14665 218.077 9.58399C218.077 10.0107 218.194 10.384 218.429 10.704C218.663 11.0133 218.978 11.2533 219.373 11.424C219.778 11.5947 220.226 11.68 220.717 11.68ZM220.717 6.25599C221.122 6.25599 221.495 6.18132 221.837 6.03199C222.189 5.88265 222.466 5.67999 222.669 5.42399C222.882 5.16799 222.989 4.85865 222.989 4.49599C222.989 4.13332 222.887 3.81865 222.685 3.55199C222.493 3.28532 222.221 3.08265 221.869 2.94399C221.527 2.79465 221.143 2.71999 220.717 2.71999C220.29 2.71999 219.901 2.79465 219.549 2.94399C219.207 3.08265 218.935 3.28532 218.733 3.55199C218.53 3.81865 218.429 4.13332 218.429 4.49599C218.429 4.86932 218.53 5.18932 218.733 5.45599C218.935 5.71199 219.207 5.90932 219.549 6.04799C219.901 6.18665 220.29 6.25599 220.717 6.25599ZM230.888 12.96C230.27 12.96 229.699 12.8853 229.176 12.736C228.664 12.576 228.222 12.352 227.848 12.064C227.486 11.7653 227.203 11.408 227 10.992C226.798 10.576 226.696 10.1067 226.696 9.58399C226.696 8.93332 226.851 8.37332 227.16 7.90399C227.48 7.43465 227.902 7.07732 228.424 6.83199C228.008 6.58665 227.683 6.26665 227.448 5.87199C227.214 5.47732 227.096 5.00799 227.096 4.46399C227.096 3.82399 227.251 3.28532 227.56 2.84799C227.88 2.39999 228.323 2.05332 228.888 1.80799C229.464 1.56265 230.131 1.43999 230.888 1.43999C231.635 1.43999 232.291 1.56265 232.856 1.80799C233.432 2.04265 233.875 2.38399 234.184 2.83199C234.504 3.27999 234.664 3.81865 234.664 4.44799C234.664 4.99199 234.547 5.46665 234.312 5.87199C234.078 6.26665 233.758 6.58665 233.352 6.83199C233.875 7.07732 234.291 7.43465 234.6 7.90399C234.92 8.37332 235.08 8.93332 235.08 9.58399C235.08 10.2773 234.904 10.88 234.552 11.392C234.2 11.8933 233.71 12.2827 233.08 12.56C232.451 12.8267 231.72 12.96 230.888 12.96ZM230.888 11.68C231.379 11.68 231.822 11.5947 232.216 11.424C232.611 11.2533 232.926 11.0133 233.16 10.704C233.395 10.384 233.512 10.0107 233.512 9.58399C233.512 9.14665 233.395 8.77865 233.16 8.47999C232.926 8.17065 232.611 7.93599 232.216 7.77599C231.822 7.60532 231.379 7.51999 230.888 7.51999C230.398 7.51999 229.95 7.60532 229.544 7.77599C229.15 7.93599 228.835 8.17065 228.6 8.47999C228.366 8.77865 228.248 9.14665 228.248 9.58399C228.248 10.0107 228.366 10.384 228.6 10.704C228.835 11.0133 229.15 11.2533 229.544 11.424C229.95 11.5947 230.398 11.68 230.888 11.68ZM230.888 6.25599C231.294 6.25599 231.667 6.18132 232.008 6.03199C232.36 5.88265 232.638 5.67999 232.84 5.42399C233.054 5.16799 233.16 4.85865 233.16 4.49599C233.16 4.13332 233.059 3.81865 232.856 3.55199C232.664 3.28532 232.392 3.08265 232.04 2.94399C231.699 2.79465 231.315 2.71999 230.888 2.71999C230.462 2.71999 230.072 2.79465 229.72 2.94399C229.379 3.08265 229.107 3.28532 228.904 3.55199C228.702 3.81865 228.6 4.13332 228.6 4.49599C228.6 4.86932 228.702 5.18932 228.904 5.45599C229.107 5.71199 229.379 5.90932 229.72 6.04799C230.072 6.18665 230.462 6.25599 230.888 6.25599ZM237.256 12.8C237.149 12.8 237.059 12.768 236.984 12.704C236.92 12.6293 236.888 12.5387 236.888 12.432V11.28C236.888 11.1733 236.92 11.088 236.984 11.024C237.059 10.9493 237.149 10.912 237.256 10.912H238.408C238.515 10.912 238.6 10.9493 238.664 11.024C238.739 11.088 238.776 11.1733 238.776 11.28V12.432C238.776 12.5387 238.739 12.6293 238.664 12.704C238.6 12.768 238.515 12.8 238.408 12.8H237.256ZM241.747 12.8C241.651 12.8 241.571 12.768 241.507 12.704C241.454 12.6293 241.427 12.544 241.427 12.448C241.427 12.416 241.438 12.368 241.459 12.304L245.443 2.99199H240.195C240.088 2.99199 239.998 2.95999 239.923 2.89599C239.859 2.82132 239.827 2.73065 239.827 2.62399V1.98399C239.827 1.86665 239.859 1.77599 239.923 1.71199C239.998 1.63732 240.088 1.59999 240.195 1.59999H246.755C246.872 1.59999 246.963 1.63732 247.027 1.71199C247.102 1.77599 247.139 1.86665 247.139 1.98399V2.57599C247.139 2.71465 247.128 2.82665 247.107 2.91199C247.086 2.99732 247.054 3.09332 247.011 3.19999L243.059 12.4C243.027 12.4853 242.974 12.576 242.899 12.672C242.835 12.7573 242.739 12.8 242.611 12.8H241.747ZM248.718 12.8C248.611 12.8 248.521 12.768 248.446 12.704C248.382 12.6293 248.35 12.5387 248.35 12.432V11.92C248.35 11.824 248.377 11.7173 248.43 11.6C248.483 11.4827 248.59 11.3547 248.75 11.216L252.142 7.82399C252.686 7.36532 253.113 6.97599 253.422 6.65599C253.742 6.32532 253.966 6.01065 254.094 5.71199C254.233 5.41332 254.302 5.10399 254.302 4.78399C254.302 4.17599 254.131 3.69599 253.79 3.34399C253.449 2.98132 252.942 2.79999 252.27 2.79999C251.843 2.79999 251.475 2.89065 251.166 3.07199C250.857 3.24265 250.611 3.48265 250.43 3.79199C250.259 4.09065 250.147 4.43199 250.094 4.81599C250.073 4.95465 250.014 5.05065 249.918 5.10399C249.833 5.15732 249.753 5.18399 249.678 5.18399H248.846C248.75 5.18399 248.67 5.15732 248.606 5.10399C248.542 5.03999 248.51 4.96532 248.51 4.87999C248.521 4.47465 248.606 4.06932 248.766 3.66399C248.926 3.24799 249.161 2.87465 249.47 2.54399C249.79 2.21332 250.179 1.94665 250.638 1.74399C251.107 1.53065 251.651 1.42399 252.27 1.42399C253.113 1.42399 253.801 1.57865 254.334 1.88799C254.878 2.18665 255.278 2.58665 255.534 3.08799C255.79 3.58932 255.918 4.13865 255.918 4.73599C255.918 5.20532 255.838 5.63732 255.678 6.03199C255.518 6.41599 255.283 6.79465 254.974 7.16799C254.675 7.53065 254.302 7.90399 253.854 8.28799L250.782 11.408H255.774C255.891 11.408 255.982 11.44 256.046 11.504C256.121 11.568 256.158 11.6587 256.158 11.776V12.432C256.158 12.5387 256.121 12.6293 256.046 12.704C255.982 12.768 255.891 12.8 255.774 12.8H248.718Z" fill="#7A7A7A"/>
</svg>
